<?xml version="1.0" encoding="utf-8"?>
<!-- Generator: Adobe Illustrator 24.1.1, SVG Export Plug-In . SVG Version: 6.00 Build 0)  -->
<svg version="1.1" id="图层_1" xmlns="http://www.w3.org/2000/svg" xmlns:xlink="http://www.w3.org/1999/xlink" x="0px" y="0px"
	 viewBox="0 0 162 22" style="enable-background:new 0 0 162 22;" xml:space="preserve">
<style type="text/css">
	.st0{fill-rule:evenodd;clip-rule:evenodd;fill:#FFFFFF;}
	.st1{fill-rule:evenodd;clip-rule:evenodd;fill:#FFD43D;}
	.st2{fill-rule:evenodd;clip-rule:evenodd;fill:#FF4D23;}
	.st3{fill-rule:evenodd;clip-rule:evenodd;fill:#625BFF;}
	.st4{fill-rule:evenodd;clip-rule:evenodd;fill:#5BF0FF;}
</style>
<g id="编组-10">
	<path id="Fill-5" class="st0" d="M34,3h2.5v8.2L43.2,3h3.1l-7.1,8.4l7.7,9h-3.1l-7.3-8.7v8.7H34V3z M48.2,13.9c0-2,0.6-3.7,1.9-4.9
		c1.2-1.2,2.7-1.8,4.5-1.8c1.8,0,3.2,0.6,4.4,1.8c1.3,1.3,1.9,2.9,1.9,4.9c0,2-0.6,3.7-1.9,4.9c-1.2,1.2-2.7,1.8-4.4,1.8
		c-1.8,0-3.3-0.6-4.5-1.8C48.8,17.6,48.2,15.9,48.2,13.9z M50.8,13.9c0,2.1,0.7,3.6,2.1,4.4c0.5,0.3,1.1,0.4,1.7,0.4
		c0.7,0,1.2-0.1,1.7-0.4c0.5-0.3,0.9-0.6,1.2-1.1c0.6-0.9,0.8-1.9,0.8-3.3c0-2.1-0.7-3.6-2-4.4c-0.5-0.3-1-0.4-1.7-0.4
		c-0.7,0-1.2,0.1-1.7,0.4c-0.5,0.3-0.9,0.6-1.2,1.1C51.1,11.5,50.8,12.6,50.8,13.9z M63.1,13.9c0-2,0.6-3.7,1.9-4.9
		c1.2-1.2,2.7-1.8,4.5-1.8c1.8,0,3.2,0.6,4.4,1.8c1.3,1.3,1.9,2.9,1.9,4.9c0,2-0.6,3.7-1.9,4.9c-1.2,1.2-2.7,1.8-4.4,1.8
		c-1.8,0-3.3-0.6-4.5-1.8C63.7,17.6,63.1,15.9,63.1,13.9z M65.7,13.9c0,2.1,0.7,3.6,2.1,4.4c0.5,0.3,1.1,0.4,1.7,0.4
		c0.7,0,1.2-0.1,1.7-0.4c0.5-0.3,0.9-0.6,1.2-1.1c0.6-0.9,0.8-1.9,0.8-3.3c0-2.1-0.7-3.6-2-4.4c-0.5-0.3-1-0.4-1.7-0.4
		c-0.7,0-1.2,0.1-1.7,0.4c-0.5,0.3-0.9,0.6-1.2,1.1C66,11.5,65.7,12.6,65.7,13.9z M79.4,1.8h2.5v13.7c0,1.7,0.4,2.6,1.1,2.9
		c0.3,0.1,0.5,0.2,0.8,0.2s0.5,0,0.8-0.1v1.9l-0.5,0.1c-0.2,0-0.3,0-0.4,0c-1.6,0-2.8-0.5-3.5-1.6c-0.6-0.8-0.8-2-0.8-3.4V1.8z
		 M99.2,20.3c-0.8,0.2-1.9,0.2-3.3,0.2c-1.4,0-2.7-0.2-3.8-0.6c-1.1-0.4-2.1-1-2.9-1.7c-1.7-1.6-2.6-3.9-2.6-6.7
		c0-1.9,0.4-3.5,1.3-4.9c1.2-1.9,3.1-3,5.6-3.6c0.8-0.2,1.7-0.2,2.7-0.2c1.1,0,1.9,0.1,2.6,0.2v2.4c-0.6-0.2-1.5-0.3-2.7-0.3
		c-1.2,0-2.3,0.2-3.1,0.5c-0.9,0.3-1.6,0.7-2.1,1.3c-1.1,1.1-1.7,2.6-1.7,4.6c0,2,0.6,3.6,1.7,4.8c1.2,1.3,2.9,1.9,5.1,1.9
		c1.3,0,2.4-0.1,3.2-0.3V20.3z M108.4,20.6c-4.7,0-7.1-2.3-7.1-6.9c0-2,0.7-3.6,2-4.8c1.2-1.1,2.5-1.6,4-1.6c1.6,0,2.9,0.6,3.9,1.7
		c0.9,1,1.3,2.4,1.3,4.1v1h-8.5c0,2.4,1,3.8,2.9,4.3c0.5,0.1,1.2,0.2,2.1,0.2c1,0,1.9-0.1,2.8-0.4v2.1
		C110.8,20.5,109.7,20.6,108.4,20.6z M109.9,12.2c0-0.8-0.2-1.5-0.7-2c-0.5-0.6-1.2-1-2.1-1c-1,0-1.7,0.3-2.3,0.9
		c-0.6,0.6-0.8,1.3-0.8,2.1H109.9z M121,9.4c-1.2,0-2.3,0.4-3.3,1.3v9.7h-2.5V7.5h2.3l0.2,1.4c1.4-1.1,2.8-1.6,4.2-1.6
		c1.5,0,2.7,0.5,3.4,1.4c0.8,1,1.1,2.5,1.1,4.7v7.1h-2.5v-7.1c0-2.1-0.6-3.3-1.7-3.7C121.9,9.5,121.5,9.4,121,9.4z M134.8,18.4
		c0.3,0.1,0.7,0.2,1.3,0.2c0.6,0,1-0.1,1.4-0.2v2c-0.2,0-0.4,0.1-0.8,0.1l-0.8,0c-0.2,0-0.3,0-0.4,0c-1.6,0-2.8-0.5-3.6-1.6
		c-0.6-0.9-0.9-2-0.9-3.4V9.4h-1.9V8.2l1.9-0.7l0.6-3.2h1.9v3.2h4v1.9h-4v6.1C133.5,17.1,133.9,18.1,134.8,18.4z M146.9,20.6
		c-4.7,0-7.1-2.3-7.1-6.9c0-2,0.7-3.6,2-4.8c1.2-1.1,2.5-1.6,4-1.6c1.6,0,2.9,0.6,3.9,1.7c0.9,1,1.3,2.4,1.3,4.1v1h-8.5
		c0,2.4,1,3.8,2.9,4.3c0.5,0.1,1.2,0.2,2.1,0.2c1,0,1.9-0.1,2.8-0.4v2.1C149.3,20.5,148.2,20.6,146.9,20.6z M148.4,12.2
		c0-0.8-0.2-1.5-0.7-2c-0.5-0.6-1.2-1-2.1-1c-1,0-1.7,0.3-2.3,0.9c-0.6,0.6-0.8,1.3-0.8,2.1H148.4z M161.9,9.8
		c-0.5-0.1-1-0.2-1.7-0.2c-0.6,0-1.2,0.1-1.6,0.2c-0.4,0.1-0.8,0.3-1.1,0.5c-0.6,0.3-1,0.7-1.2,1.1v9h-2.5V7.5h2.4l0.1,1.8
		c0.6-0.8,1.5-1.4,2.7-1.8c0.4-0.2,0.9-0.2,1.5-0.2s1,0,1.3,0.1V9.8z"/>
	<g id="编组-27">
		<path id="Fill-8" class="st1" d="M4.9,1.7C2,3.7,0,7,0,10.8S2,18,4.9,20V1.7z"/>
		<path id="Fill-10" class="st2" d="M17.8,2.6L11,9.4H8.4V0.3C9.2,0.1,10,0,10.8,0C13.5,0,16,1,17.8,2.6z"/>
		<path id="Fill-11" class="st3" d="M19.9,16.9c1.1-1.7,1.8-3.8,1.8-6c0-2.1-0.6-4-1.6-5.7l-6,6L19.9,16.9z"/>
		<path id="Fill-12" class="st4" d="M8.4,21.4c0.8,0.2,1.6,0.3,2.4,0.3c2.5,0,4.8-0.9,6.7-2.3l-6.6-6.6H8.4V21.4z"/>
	</g>
</g>
</svg>
